# xmcd
#
# Track frame offsets: 
# 150
# 19742
# 26932
# 57735
# 95665
# 110962
# 137032
# 160787
# 183707
# 206882
# 226807
# 271317
# 298937
#
# Disc length: 4255 seconds
# Submitted via: tkcNetwork 1.0
# Revision: 0
# Processed by: cddbd v1.5.1PL0 Copyright (c) Steve Scherf et al.
#
DISCID=d0109d0d
DTITLE=The Ground Zero Project - Battle Cry
DYEAR=1900
DGENRE=
TTITLE0=Battle Cry
TTITLE1=The Rhythm Of Grace
TTITLE2=Watchful Eye Step Right Up
TTITLE3=New Age Is Old Age
TTITLE4=The Stage Is Set
TTITLE5=Don't Get Left Behind
TTITLE6=Mark Of The Beast
TTITLE7=Razors Edge
TTITLE8=Roll Away The Stone
TTITLE9=Secret Society
TTITLE10=Dead To The World
TTITLE11=Frozen Winds
TTITLE12=Road To Home
EXTD=
EXTT0=
EXTT1=
EXTT2=
EXTT3=
EXTT4=
EXTT5=
EXTT6=
EXTT7=
EXTT8=
EXTT9=
EXTT10=
EXTT11=
EXTT12=
PLAYORDER=
